<?xml version="1.0" encoding="utf-8"?>
<!-- Generator: Adobe Illustrator 19.0.0, SVG Export Plug-In . SVG Version: 6.00 Build 0)  -->
<svg version="1.1" id="Layer_1" xmlns="http://www.w3.org/2000/svg" xmlns:xlink="http://www.w3.org/1999/xlink" x="0px" y="0px"
	 viewBox="170 -171.1 374.1 374.1" style="enable-background:new 170 -171.1 374.1 374.1;" xml:space="preserve">
<style type="text/css">
	.st0{fill:#FFFFFF;}
</style>
<g>
	<circle class="st0" cx="278.8" cy="-103.2" r="60"/>
	<path class="st0" d="M444.7-3.8c-54.8,0-99.4,44.6-99.4,99.4s44.6,99.4,99.4,99.4s99.4-44.6,99.4-99.4S499.5-3.8,444.7-3.8z
		 M498.8,128.5l-21.2,21.2l-32.9-32.9l-32.9,32.9l-21.2-21.2l32.9-32.9l-32.9-32.9l21.2-21.2l32.9,32.9l32.9-32.9l21.2,21.2
		l-32.9,32.9L498.8,128.5z"/>
	<path class="st0" d="M278.8-13.2C218.7-13.2,170,35.5,170,95.6h145.3c0-32.4,11.9-62,31.6-84.7C328.3-4.2,304.6-13.2,278.8-13.2z"
		/>
</g>
</svg>
