<?xml version="1.0" encoding="utf-8"?>
<!-- Generator: Adobe Illustrator 19.0.0, SVG Export Plug-In . SVG Version: 6.00 Build 0)  -->
<svg version="1.1" id="Capa_1" xmlns="http://www.w3.org/2000/svg" xmlns:xlink="http://www.w3.org/1999/xlink" x="0px" y="0px"
	 viewBox="228 -229 490 490" style="enable-background:new 228 -229 490 490;" xml:space="preserve">
<style type="text/css">
	.st0{fill:#FFFFFF;}
</style>
<g>
	<g>
		<path class="st0" d="M625.7,168.8c-81.4,81.4-212.1,84.1-296.8,8.3H356v-29h-57.2h-0.7h-19.3v19.6v0.4v57.2h29v-28.1
			c46.6,42.5,105.8,63.8,165,63.8c62.8,0,125.5-23.9,173.3-71.7l10.3-10.3L636,158.5L625.7,168.8z"/>
		<path class="st0" d="M638-193.3v28.1C591.5-207.7,532.3-229,473-229c-62.8,0-125.5,23.9-173.3,71.7l-10.2,10.2l20.5,20.5
			l10.3-10.3c81.4-81.4,212.1-84.1,296.8-8.3h-27.2v29h57.2h0.7h19.3v-19.6v-0.4v-57.1H638z"/>
		<path class="st0" d="M473,157.5c77.8,0,140.9-63.3,140.9-141.4s-63.1-141.5-140.9-141.5S332-62.1,332,16S395.1,157.5,473,157.5z
			 M390.1,23.6c0-2.7,2.2-4.9,4.9-4.9h13.4c0-3,0-5.9,0-8.9H395c-2.7,0-4.9-2.2-4.9-4.9V-6c0-2.7,2.2-4.9,4.9-4.9h17l0.6-1.7
			c4.6-14.6,12.5-27.1,24.6-36.5c9.6-7.5,20.8-11.6,32.7-13.5c17-2.7,33.4-0.4,49.4,5.8c1,0.4,2,0.9,3,1.4c3.8,2.3,4.8,5.1,3.1,9.2
			c-1.8,4.3-3.6,8.7-5.5,12.9c-1.7,3.7-4,4.8-7.9,3.9c-5.4-1.2-10.7-2.9-16.1-4c-11.4-2.3-22.7-2.5-33.8,1.9
			c-9.5,3.8-15.3,11-19.3,20.1c0,0.1,0,0.2-0.1,0.3h33.1c2.7,0,4.9,2.2,4.9,4.9V4.7c0,2.7-2.2,4.9-4.9,4.9H438c0,2.9,0,5.8,0,8.9
			h37.9c2.7,0,4.9,2.2,4.9,4.9v10.9c0,2.7-2.2,4.9-4.9,4.9h-34.6c4.2,12,11,21.2,23.7,25.3c10.2,3.2,20.5,3,30.8,0.9
			c5.3-1.1,10.6-2.7,15.9-4c4.2-1,6.4,0.2,8.2,4c2,4.3,3.8,8.7,5.6,13.1c1.6,4,0.6,7.1-3.5,9c-4.2,1.9-8.7,3.5-13.1,4.8
			c-17.2,4.8-34.4,4.9-51.4-0.6C436.9,85,423.2,70.9,415,51.1c-1.6-3.8-2.6-7.9-3.8-11.9H395c-2.7,0-4.9-2.2-4.9-4.9L390.1,23.6
			L390.1,23.6L390.1,23.6z"/>
	</g>
</g>
</svg>
